<svg width="400" height="400" viewBox="0 0 400 400" fill="none" xmlns="http://www.w3.org/2000/svg">
<rect width="400" height="400" fill="#1E1E1E"/>
<rect x="108" y="317" width="45" height="183" rx="8" transform="rotate(-90 108 317)" fill="white"/>
<rect x="108" y="248" width="45" height="39.75" rx="8" transform="rotate(-90 108 248)" fill="white"/>
<rect x="155.75" y="248" width="45" height="39.75" rx="8" transform="rotate(-90 155.75 248)" fill="white"/>
<path d="M203.5 211.158V240C203.5 244.418 207.082 248 211.5 248H283C287.418 248 291 244.418 291 240V92C291 87.5817 287.418 84 283 84H211.5C207.082 84 203.5 87.5817 203.5 92V121C203.5 125.418 207.082 129 211.5 129H246.5C250.918 129 254.5 132.582 254.5 137L254.5 195.842C254.5 200.321 250.822 203.928 246.343 203.84L211.657 203.16C207.178 203.072 203.5 206.679 203.5 211.158Z" fill="white"/>
</svg>
